<?xml version="1.0" standalone="no"?>
<!DOCTYPE svg PUBLIC "-//W3C//DTD SVG 20010904//EN"
 "http://www.w3.org/TR/2001/REC-SVG-20010904/DTD/svg10.dtd">
<svg version="1.0" xmlns="http://www.w3.org/2000/svg"
 width="200.000000pt" height="200.000000pt" viewBox="0 0 200.000000 200.000000"
 preserveAspectRatio="xMidYMid meet">
<metadata>
Created by potrace 1.11, written by Peter Selinger 2001-2013
</metadata>
<g transform="translate(0.000000,200.000000) scale(0.100000,-0.100000)"
fill="#000000" stroke="none">
<path d="M735 1189 c-22 -56 -41 -106 -43 -110 -2 -5 7 -9 21 -9 18 0 27 7 31
25 6 22 12 25 51 25 39 0 47 -3 55 -25 9 -24 13 -26 72 -23 l63 3 5 60 c4 52
8 60 25 60 18 0 20 -8 23 -62 3 -54 6 -63 22 -63 16 0 19 9 22 56 2 40 8 60
20 68 25 15 31 3 36 -65 4 -49 8 -59 21 -57 9 2 18 17 22 38 l6 35 2 -37 c1
-31 5 -38 21 -38 17 0 20 7 20 39 0 38 1 39 42 45 23 4 49 13 58 21 14 12 15
9 15 -27 0 -75 81 -105 137 -51 l28 27 0 -28 c0 -21 4 -27 18 -24 14 3 17 15
17 78 0 68 -2 75 -20 75 -14 0 -19 -6 -17 -17 4 -24 -10 -23 -31 2 -20 24 -73
27 -105 4 -21 -14 -22 -14 -22 10 0 14 -9 35 -20 46 -17 17 -31 20 -83 18
l-62 -3 0 -47 c1 -27 -3 -48 -7 -48 -4 0 -8 7 -8 15 0 20 -46 30 -75 17 -14
-6 -27 -7 -30 -3 -2 5 -41 9 -84 9 l-80 1 -3 -62 -3 -62 -36 90 c-31 75 -41
90 -60 93 -22 2 -28 -7 -64 -99z m560 31 c0 -21 -5 -26 -32 -28 -31 -3 -33 -1
-33 28 0 29 2 31 33 28 27 -2 32 -7 32 -28z m-480 -32 c6 -25 5 -28 -19 -28
-30 0 -29 -2 -15 39 12 35 24 31 34 -11z m634 -2 c17 -20 10 -67 -11 -79 -23
-15 -48 8 -48 42 0 45 35 66 59 37z m-262 -28 c-3 -8 -6 -5 -6 6 -1 11 2 17 5
13 3 -3 4 -12 1 -19z"/>
<path d="M900 1270 c0 -13 7 -20 20 -20 13 0 20 7 20 20 0 13 -7 20 -20 20
-13 0 -20 -7 -20 -20z"/>
<path d="M1505 1280 c-9 -15 4 -30 26 -30 12 0 19 7 19 20 0 21 -33 29 -45 10z"/>
<path d="M1722 1268 c-7 -7 -12 -17 -12 -24 0 -16 -21 -23 -52 -17 -14 3 -35
0 -47 -6 -14 -8 -21 -8 -21 -1 0 5 -7 10 -15 10 -12 0 -15 -16 -15 -81 0 -71
2 -80 18 -77 13 2 18 15 20 61 2 42 7 60 19 64 24 9 43 -25 43 -79 0 -41 3
-48 20 -48 18 0 20 7 22 68 1 49 2 55 5 22 6 -81 10 -90 43 -90 32 0 42 23 15
34 -10 4 -15 20 -15 51 0 33 4 45 15 45 8 0 15 7 15 15 0 8 -7 15 -15 15 -9 0
-15 9 -15 25 0 27 -9 32 -28 13z"/>
<path d="M419 1198 c-23 -40 -82 -141 -131 -225 -48 -83 -88 -154 -88 -157 0
-3 40 -6 90 -6 l90 0 0 40 c0 34 -3 40 -21 40 -26 0 -25 4 47 126 l56 96 64
-109 c56 -96 61 -108 44 -111 -16 -3 -20 -11 -20 -43 l0 -39 91 0 91 0 -20 33
c-11 17 -70 120 -132 227 -62 107 -114 196 -116 198 -1 2 -21 -29 -45 -70z"/>
<path d="M830 935 c0 -98 1 -105 20 -105 17 0 20 7 20 40 l0 40 44 0 c49 0 76
24 76 67 0 42 -33 63 -100 63 l-60 0 0 -105z m117 47 c8 -18 -23 -42 -54 -42
-19 0 -23 5 -23 28 0 16 2 31 5 34 10 10 67 -5 72 -20z"/>
<path d="M1430 1020 c0 -13 7 -20 20 -20 13 0 20 7 20 20 0 13 -7 20 -20 20
-13 0 -20 -7 -20 -20z"/>
<path d="M1006 958 c-21 -29 -20 -92 0 -112 25 -25 61 -30 89 -12 14 9 25 21
25 26 0 14 -33 13 -48 -2 -8 -8 -15 -8 -27 2 -26 22 -17 30 35 30 47 0 50 2
50 25 0 59 -91 90 -124 43z m82 -25 c2 -9 -7 -13 -27 -13 -30 0 -39 9 -24 24
11 10 46 3 51 -11z"/>
<path d="M1140 905 c0 -68 2 -75 20 -75 16 0 19 8 22 57 2 47 6 58 22 61 26 5
36 -15 36 -70 0 -41 3 -48 20 -48 11 0 20 4 20 9 0 6 12 3 28 -5 55 -29 116
-4 110 44 -2 23 -11 29 -50 41 -27 8 -48 18 -48 22 0 13 33 20 44 9 12 -12 46
-14 46 -2 0 33 -86 44 -115 15 -16 -16 -18 -16 -27 0 -11 20 -68 23 -86 5 -9
-9 -12 -9 -12 0 0 7 -7 12 -15 12 -12 0 -15 -15 -15 -75z m209 -20 c17 -4 31
-11 31 -16 0 -16 -32 -23 -51 -11 -10 7 -26 12 -34 12 -10 0 -15 10 -15 30 0
29 0 30 19 11 10 -10 33 -22 50 -26z"/>
<path d="M1430 905 c0 -68 2 -75 20 -75 16 0 20 7 20 38 l1 37 14 -33 c13 -30
47 -52 81 -52 9 0 29 13 45 29 l29 29 0 -24 c0 -17 6 -24 20 -24 17 0 20 7 20
48 0 55 10 75 36 70 16 -3 20 -14 22 -61 3 -49 6 -57 22 -57 18 0 20 7 20 63
0 69 -10 87 -50 87 -14 0 -31 -5 -38 -12 -9 -9 -12 -9 -12 0 0 7 -9 12 -20 12
-16 0 -20 -7 -20 -32 -1 -30 -2 -31 -12 -13 -16 30 -39 45 -69 45 -42 0 -60
-10 -75 -44 l-13 -31 -1 38 c0 30 -4 37 -20 37 -18 0 -20 -7 -20 -75z m159 23
c13 -36 -2 -63 -35 -63 -24 0 -30 5 -32 28 -6 52 50 81 67 35z"/>
<path d="M427 963 c-4 -3 -7 -53 -7 -110 l0 -103 40 0 40 0 0 110 0 110 -33 0
c-19 0 -37 -3 -40 -7z"/>
</g>
</svg>
